# xmcd CD database file
#
# Track frame offsets:
#	183
#	10993
#	26023
#	43383
#	63928
#	88040
#	113460
#	126995
#	141123
#	170638
#	180898
#	192458
#	214650
#	227580
#	237083
#	250008
#	265858
#
# Disc length: 3753 seconds
#
# Revision: 0
# Processed by: cddbd v1.4PL0 Copyright (c) Steve Scherf et al.
# Submitted via: CDex 1.51
#
DISCID=e50ea711
DTITLE=Duke Ellington - 16 Greatest Hits Vol2
DYEAR=1990
DGENRE=Jazz
TTITLE0=Perdido
TTITLE1=In A Jam
TTITLE2=Satin Doll
TTITLE3=Medly
TTITLE4=Rockin' In Rhytm
TTITLE5=One O Clock Jump
TTITLE6=Indian Summer
TTITLE7=Swamp Fire
TTITLE8=Tootie For Cootie
TTITLE9=Ko Ko
TTITLE10=The Suburbanite
TTITLE11=Everthing Goes
TTITLE12=Cotton Tail
TTITLE13=Tip Toe Topic
TTITLE14=Rockabye River
TTITLE15=The Unbooted Character
TTITLE16=Just squeeze Me
EXTD=YEAR: 1990
EXTT0=
EXTT1=
EXTT2=
EXTT3=
EXTT4=
EXTT5=
EXTT6=
EXTT7=
EXTT8=
EXTT9=
EXTT10=
EXTT11=
EXTT12=
EXTT13=
EXTT14=
EXTT15=
EXTT16=
PLAYORDER=
